<svg width="40" height="40" viewBox="0 0 40 40" fill="none" xmlns="http://www.w3.org/2000/svg">
<rect width="40" height="40" rx="20" fill="#5500EB"/>
<path d="M19.9188 7.63679C19.9309 7.54141 20.0691 7.54141 20.0812 7.63679L20.8561 13.7104C21.218 16.5479 23.4521 18.782 26.2896 19.1439L32.3632 19.9188C32.4586 19.9309 32.4586 20.0691 32.3632 20.0812L26.2896 20.8561C23.4521 21.218 21.218 23.4521 20.8561 26.2896L20.0812 32.3632C20.0691 32.4586 19.9309 32.4586 19.9188 32.3632L19.1439 26.2896C18.782 23.4521 16.5479 21.218 13.7104 20.8561L7.63679 20.0812C7.54141 20.0691 7.54141 19.9309 7.63679 19.9188L13.7104 19.1439C16.5479 18.782 18.782 16.5479 19.1439 13.7104L19.9188 7.63679Z" fill="white"/>
</svg>
